<!DOCTYPE svg PUBLIC "-//W3C//DTD SVG 20010904//EN" "http://www.w3.org/TR/2001/REC-SVG-20010904/DTD/svg10.dtd">
<svg version="1.0" xmlns="http://www.w3.org/2000/svg" width="1101px" height="1087px" viewBox="0 0 11010 10870" preserveAspectRatio="xMidYMid meet">
<!-- generated by www.vectorizer.io -->
<g id="layer1" fill="#ffffff" stroke="none">
 <path d="M5367 10855 c-27 -7 -66 -25 -87 -40 -67 -47 -176 -168 -243 -271 -92 -142 -416 -572 -674 -894 -528 -662 -997 -1192 -1538 -1739 -651 -659 -1162 -1108 -1740 -1531 -175 -128 -517 -356 -610 -406 -239 -129 -424 -305 -463 -440 -17 -57 -15 -186 3 -248 35 -120 190 -259 426 -381 309 -160 658 -416 1120 -821 791 -695 1997 -1940 2937 -3034 285 -331 434 -522 518 -663 127 -214 239 -335 343 -372 55 -19 181 -19 244 0 26 8 67 27 90 44 69 47 192 185 264 295 36 55 77 118 90 138 32 47 441 559 602 753 1091 1312 2177 2421 3070 3134 393 313 806 595 1045 711 105 51 200 134 227 198 27 62 26 183 -2 258 -26 69 -123 170 -214 224 -219 128 -951 686 -1410 1075 -1120 948 -2104 1954 -2945 3010 -188 237 -507 665 -551 739 -40 68 -140 180 -196 219 -78 54 -201 71 -306 42z m301 -1381 c386 -152 1400 -999 2388 -1996 594 -599 1014 -1090 1250 -1459 83 -131 178 -324 200 -409 27 -98 22 -216 -11 -320 -142 -442 -685 -1153 -1545 -2024 -946 -957 -1850 -1673 -2306 -1825 -172 -57 -255 -51 -430 33 -801 385 -2968 2494 -3612 3516 -80 128 -155 280 -182 369 -50 164 4 336 198 635 615 951 2702 2921 3596 3397 209 111 328 133 454 83z"/>
 <path d="M5505 9268 c-144 -30 -538 -288 -955 -622 -1271 -1019 -2703 -2534 -2896 -3062 -37 -103 -32 -146 39 -287 252 -505 1191 -1568 2252 -2548 550 -507 1093 -933 1364 -1067 119 -60 174 -62 296 -14 746 295 2715 2148 3426 3224 209 316 287 509 260 636 -67 306 -565 942 -1396 1781 -950 960 -1996 1841 -2328 1960 -12 4 -40 4 -62 -1z m321 -1195 c-3 -32 -18 -415 -33 -850 l-27 -793 -288 0 c-159 0 -288 3 -288 8 0 4 -27 374 -60 822 -33 448 -60 827 -60 843 l0 27 381 0 381 0 -6 -57z m109 -1773 c351 -25 644 -83 885 -175 135 -52 386 -178 490 -247 127 -83 227 -184 271 -273 30 -61 34 -79 34 -145 0 -162 -85 -264 -374 -444 -24 -15 -39 -31 -35 -35 5 -5 46 -19 91 -31 46 -13 82 -25 80 -26 -7 -7 -1071 -304 -1074 -300 -3 3 26 97 63 210 l69 206 65 -1 c36 0 119 -4 185 -8 l120 -8 68 36 c92 49 226 150 275 208 119 143 121 260 6 383 -138 147 -347 234 -767 320 -374 76 -682 105 -1040 97 -372 -8 -648 -57 -913 -162 -332 -131 -496 -270 -497 -420 -2 -169 247 -359 674 -514 l132 -49 -104 -60 c-57 -34 -192 -113 -299 -176 l-195 -114 -129 45 c-376 131 -661 287 -827 452 -110 111 -143 173 -147 286 -4 96 12 146 77 235 121 166 422 338 886 505 265 96 771 176 1310 208 126 8 494 6 620 -3z m-202 -487 c-19 -472 -50 -1539 -45 -1545 4 -4 116 -9 249 -10 l241 -3 -367 -867 c-202 -477 -369 -869 -372 -872 -3 -3 -132 383 -288 857 -156 474 -286 868 -288 875 -4 9 37 12 185 12 105 0 193 3 195 8 4 6 -31 1122 -47 1505 l-6 147 274 0 274 0 -5 -107z"/>
 <path d="M7263 10396 c-60 -19 -104 -49 -157 -106 -74 -79 -91 -125 -91 -250 0 -90 3 -112 23 -152 35 -70 103 -140 174 -179 60 -33 67 -34 168 -34 127 0 171 17 256 97 123 115 155 288 82 435 -29 57 -125 148 -185 175 -60 27 -207 35 -270 14z m246 -101 c50 -25 99 -73 128 -128 14 -24 18 -55 18 -128 0 -89 -2 -99 -30 -144 -145 -235 -489 -159 -522 114 -26 223 207 387 406 286z"/>
 <path d="M7215 10238 c-3 -8 -4 -101 -3 -208 l3 -195 110 -3 c129 -4 174 7 209 49 37 44 37 120 -1 155 l-26 24 23 25 c16 18 24 41 29 90 4 36 5 68 2 70 -10 10 -108 4 -119 -7 -7 -7 -12 -31 -12 -54 0 -46 -12 -61 -58 -70 l-31 -6 -3 68 -3 69 -58 3 c-41 2 -59 -1 -62 -10z m189 -228 c20 -7 26 -16 26 -40 0 -24 -6 -33 -26 -40 -54 -21 -64 -15 -64 40 0 55 10 61 64 40z"/>
 </g>

</svg>